<svg xmlns="http://www.w3.org/2000/svg" xmlns:xlink="http://www.w3.org/1999/xlink" width="148.042" height="39.7" viewBox="0 0 148.042 39.7">
  <defs>
    <clipPath id="clip-path">
      <rect id="Rettangolo_12" data-name="Rettangolo 12" width="148.042" height="39.7" fill="none"/>
    </clipPath>
  </defs>
  <g id="Raggruppa_14" data-name="Raggruppa 14" transform="translate(-35.737 -9.583)">
    <g id="Raggruppa_13" data-name="Raggruppa 13" transform="translate(35.737 9.583)" clip-path="url(#clip-path)">
      <path id="Tracciato_13" data-name="Tracciato 13" d="M36.763,32.079a13.808,13.808,0,0,1-12.839,8.753,13.6,13.6,0,0,1-12.836-8.669L0,2.236A9.289,9.289,0,0,1,3.668,1.57,11.011,11.011,0,0,1,13.921,8.743l7.42,19.837a2.615,2.615,0,0,0,5.083,0S27.008,27,33.846,8.743A11.01,11.01,0,0,1,44.1,1.57a9.961,9.961,0,0,1,3.75.666C34.677,37.747,36.763,32.162,36.763,32.079" transform="translate(0 -1.131)" fill="#fff"/>
      <path id="Tracciato_14" data-name="Tracciato 14" d="M255.387,32.079c0,.084-2.084,5.669,11.085-29.842a9.956,9.956,0,0,0-3.748-.666,11.005,11.005,0,0,0-10.252,7.173C245.634,27,245.054,28.58,245.054,28.58a2.619,2.619,0,0,1-5.089,0l-3.817-10.209-3.6-9.628A11.013,11.013,0,0,0,222.294,1.57a9.284,9.284,0,0,0-3.668.666l11.088,29.926a13.6,13.6,0,0,0,12.837,8.669,13.8,13.8,0,0,0,12.835-8.753" transform="translate(-157.503 -1.131)" fill="#fff"/>
      <path id="Tracciato_15" data-name="Tracciato 15" d="M369.467,8.753c0-.084,2.084-5.669-11.085,29.842a9.956,9.956,0,0,0,3.748.666,11.005,11.005,0,0,0,10.252-7.173c6.838-18.253,7.418-19.837,7.418-19.837a2.619,2.619,0,0,1,5.089,0l7.418,19.837a11.013,11.013,0,0,0,10.253,7.173,9.285,9.285,0,0,0,3.668-.666L395.139,8.669A13.6,13.6,0,0,0,382.3,0a13.8,13.8,0,0,0-12.835,8.753" transform="translate(-258.186)" fill="#fff"/>
      <path id="Tracciato_16" data-name="Tracciato 16" d="M172.825,41.047a10.811,10.811,0,0,0,10.833-10.833V1.869a10.885,10.885,0,0,0-10.833,10.919V41.047Z" transform="translate(-124.507 -1.346)" fill="#fff"/>
      <path id="Tracciato_17" data-name="Tracciato 17" d="M420.626,97.208a6.585,6.585,0,1,1,6.585,6.585,6.585,6.585,0,0,1-6.585-6.585" transform="translate(-303.027 -65.287)" fill="#e50019"/>
    </g>
  </g>
</svg>
