<svg xmlns="http://www.w3.org/2000/svg" xmlns:xlink="http://www.w3.org/1999/xlink" width="62.978" height="16.889" viewBox="0 0 62.978 16.889">
  <defs>
    <clipPath id="clip-path">
      <rect id="Rettangolo_10" data-name="Rettangolo 10" width="62.978" height="16.889" fill="none"/>
    </clipPath>
  </defs>
  <g id="Raggruppa_9" data-name="Raggruppa 9" clip-path="url(#clip-path)">
    <path id="Tracciato_3" data-name="Tracciato 3" d="M15.639,14.549a5.874,5.874,0,0,1-5.462,3.724,5.786,5.786,0,0,1-5.461-3.688L0,1.853A3.952,3.952,0,0,1,1.56,1.57,4.684,4.684,0,0,1,5.922,4.621L9.079,13.06a1.113,1.113,0,0,0,2.162,0s.248-.674,3.157-8.439A4.684,4.684,0,0,1,18.759,1.57a4.238,4.238,0,0,1,1.6.283c-5.6,15.107-4.715,12.731-4.715,12.7" transform="translate(0 -1.383)" fill="#040504"/>
    <path id="Tracciato_4" data-name="Tracciato 4" d="M234.264,14.549c0,.036-.887,2.412,4.716-12.7a4.235,4.235,0,0,0-1.595-.283,4.682,4.682,0,0,0-4.361,3.051c-2.909,7.765-3.155,8.439-3.155,8.439a1.114,1.114,0,0,1-2.165,0l-3.156-8.439a4.685,4.685,0,0,0-4.362-3.051,3.95,3.95,0,0,0-1.56.283l4.717,12.731a5.785,5.785,0,0,0,5.461,3.688,5.872,5.872,0,0,0,5.46-3.724" transform="translate(-192.624 -1.383)" fill="#040504"/>
    <path id="Tracciato_5" data-name="Tracciato 5" d="M363.1,3.724c0-.036.887-2.412-4.716,12.7a4.235,4.235,0,0,0,1.595.283,4.682,4.682,0,0,0,4.361-3.051c2.909-7.765,3.155-8.439,3.155-8.439a1.114,1.114,0,0,1,2.165,0l3.156,8.439a4.685,4.685,0,0,0,4.362,3.051,3.95,3.95,0,0,0,1.56-.283L374.019,3.688A5.785,5.785,0,0,0,368.558,0a5.872,5.872,0,0,0-5.46,3.724" transform="translate(-315.758)" fill="#040504"/>
    <path id="Tracciato_6" data-name="Tracciato 6" d="M172.825,18.536a4.6,4.6,0,0,0,4.609-4.608V1.869a4.631,4.631,0,0,0-4.609,4.645V18.536Z" transform="translate(-152.27 -1.647)" fill="#040504"/>
    <path id="Tracciato_7" data-name="Tracciato 7" d="M420.626,93.424a2.8,2.8,0,1,1,2.8,2.8,2.8,2.8,0,0,1-2.8-2.8" transform="translate(-370.599 -79.845)" fill="#e50019"/>
  </g>
</svg>
